<svg width="25" height="28" viewBox="0 0 25 28" fill="none" xmlns="http://www.w3.org/2000/svg">
<g clip-path="url(#clip0_90_1388)">
<path fill-rule="evenodd" clip-rule="evenodd" d="M23.5192 16.6549L23.6016 15.1587H23.6038C23.6038 9.69939 19.5984 5.17521 14.3662 4.36255H14.3595C14.1569 4.33138 13.9543 4.30467 13.7472 4.28463L9.26529 3.71911C6.88296 3.41853 4.58079 2.67044 2.47676 1.5149L1.76652 1.12305C1.76652 1.12305 4.16666 6.60238 10.9062 8.03845C17.4508 9.43319 17.6002 14.5788 17.6034 14.8804C17.6023 14.8586 17.6011 14.8369 17.5998 14.8152C17.5735 14.143 17.166 9.37302 10.9043 8.04066C4.16479 6.60236 1.76465 1.12526 1.76465 1.12526V4.23341C1.76465 6.22387 2.29678 8.08964 3.22744 9.69715C4.30951 11.5674 5.93039 13.0881 7.87856 14.0432C8.37061 11.8435 10.3344 10.1981 12.6833 10.1981C15.3011 10.1981 17.4405 12.2384 17.5998 14.8152C17.6014 14.8574 17.6016 14.8835 17.6016 14.8915L17.6035 14.8896C17.6035 14.8903 17.6035 14.891 17.6035 14.8915C17.6079 14.9672 17.6079 15.045 17.6079 15.1229V15.1231C17.6079 17.8438 15.4037 20.048 12.6829 20.048C10.1826 20.048 8.11643 18.1822 7.80027 15.7687C7.42845 15.6307 7.06554 15.4748 6.71153 15.3056C5.00382 14.4907 3.48759 13.3374 2.24966 11.9348C1.93573 12.9523 1.76652 14.0343 1.76652 15.1565C1.76652 21.1924 6.65809 26.0862 12.6918 26.0862C18.2202 26.0862 22.7889 21.9828 23.5192 16.6549Z" fill="url(#paint0_linear_90_1388)"/>
<path fill-rule="evenodd" clip-rule="evenodd" d="M12.6809 21.7318C16.5282 21.7318 19.6475 18.6125 19.6475 14.7652V14.7629C19.6475 10.9156 16.5282 7.80078 12.6809 7.80078C12.0664 7.80078 11.4653 7.88093 10.8975 8.03011L10.8998 8.03163C8.53097 8.65734 6.6564 10.503 5.98626 12.8541C6.57182 13.3083 7.20636 13.709 7.87875 14.0408C8.3708 11.8433 10.3368 10.1979 12.6835 10.1979C15.2993 10.1979 17.4353 12.233 17.5995 14.8092C17.6012 14.8526 17.6014 14.8793 17.6014 14.8876C17.6058 14.9678 17.6059 15.0457 17.6059 15.1214C17.6059 17.8444 15.4039 20.0463 12.6809 20.0463C10.1806 20.0463 8.11665 18.1828 7.8005 15.7693C7.42868 15.6313 7.06576 15.4754 6.71175 15.304C6.37333 15.1437 6.04159 14.9678 5.71875 14.783C5.72988 18.6236 8.83357 21.7318 12.6809 21.7318ZM13.1257 8.7417C12.4823 8.45619 11.7464 8.21443 10.9047 8.03468L10.9067 8.03602C11.7475 8.21554 12.4827 8.45679 13.1257 8.7417Z" fill="url(#paint1_linear_90_1388)"/>
<path d="M12.7649 18.3403C14.6139 18.3403 16.1128 16.8414 16.1128 14.9924C16.1128 13.1434 14.6139 11.6445 12.7649 11.6445C10.9159 11.6445 9.41699 13.1434 9.41699 14.9924C9.41699 16.8414 10.9159 18.3403 12.7649 18.3403Z" fill="url(#paint2_linear_90_1388)"/>
</g>
<defs>
<linearGradient id="paint0_linear_90_1388" x1="0.090534" y1="3.27527" x2="21.1347" y2="22.6473" gradientUnits="userSpaceOnUse">
<stop stop-color="#74FF90"/>
<stop offset="1" stop-color="#02812E"/>
</linearGradient>
<linearGradient id="paint1_linear_90_1388" x1="18.02" y1="19.2426" x2="8.32149" y2="11.1048" gradientUnits="userSpaceOnUse">
<stop offset="0.24" stop-color="#7FE17E"/>
<stop offset="0.57" stop-color="#258B45"/>
<stop offset="0.77" stop-color="#02812D"/>
</linearGradient>
<linearGradient id="paint2_linear_90_1388" x1="9.63946" y1="16.1912" x2="15.8903" y2="13.7915" gradientUnits="userSpaceOnUse">
<stop offset="0.02" stop-color="#41AB5D"/>
<stop offset="0.4" stop-color="#41AB5D"/>
<stop offset="0.67" stop-color="#76C375"/>
<stop offset="0.97" stop-color="#C8E4BF"/>
</linearGradient>
<clipPath id="clip0_90_1388">
<rect width="24" height="26.9631" fill="white" transform="translate(0.764648 0.123047)"/>
</clipPath>
</defs>
</svg>
