<svg width="1920" height="205" viewBox="0 0 1920 205" fill="none" xmlns="http://www.w3.org/2000/svg">
<g clip-path="url(#clip0_33_94)">
<path d="M1170.93 97H908.066C904.716 97 902 99.6863 902 103V121C902 124.314 904.716 127 908.066 127H1170.93C1174.28 127 1177 124.314 1177 121V103C1177 99.6863 1174.28 97 1170.93 97Z" fill="white" fill-opacity="0.05"/>
<path d="M1170.93 97.75H908.066C905.134 97.75 902.758 100.101 902.758 103V121C902.758 123.899 905.134 126.25 908.066 126.25H1170.93C1173.86 126.25 1176.24 123.899 1176.24 121V103C1176.24 100.101 1173.86 97.75 1170.93 97.75Z" stroke="white" stroke-opacity="0.09" stroke-width="1.5"/>
<g clip-path="url(#clip1_33_94)">
<path d="M1157.81 105.282L1164.57 108.685L1158.05 112.415L1151.3 109.008L1157.81 105.282Z" stroke="#111115" stroke-linejoin="round"/>
<path d="M1151.43 109.005L1157.81 105.351L1164.43 108.685L1158.05 112.338L1151.43 109.005Z" fill="#81EE97" stroke="#111115" stroke-linejoin="round"/>
<path d="M1164.56 108.681L1164.7 115.992L1158.19 119.722L1158.05 112.411L1164.56 108.681Z" fill="#00654D" stroke="#111115" stroke-linejoin="round"/>
<path d="M1158.05 112.411L1158.19 119.722L1151.44 116.319L1151.3 109.008L1158.05 112.411Z" fill="#81EE97" stroke="#111115" stroke-linejoin="round"/>
</g>
<path opacity="0.6" d="M904.438 90C904.357 90 904.295 89.978 904.251 89.934C904.207 89.8827 904.185 89.8203 904.185 89.747V82.564C904.185 82.4833 904.207 82.421 904.251 82.377C904.295 82.3257 904.357 82.3 904.438 82.3H904.944C905.032 82.3 905.098 82.322 905.142 82.366C905.186 82.4027 905.211 82.432 905.219 82.454L908.871 88.064V82.564C908.871 82.4833 908.893 82.421 908.937 82.377C908.981 82.3257 909.043 82.3 909.124 82.3H909.652C909.732 82.3 909.795 82.3257 909.839 82.377C909.89 82.421 909.916 82.4833 909.916 82.564V89.736C909.916 89.8093 909.89 89.8717 909.839 89.923C909.795 89.9743 909.736 90 909.663 90H909.135C909.054 90 908.992 89.978 908.948 89.934C908.911 89.89 908.885 89.8607 908.871 89.846L905.23 84.291V89.747C905.23 89.8203 905.204 89.8827 905.153 89.934C905.109 89.978 905.046 90 904.966 90H904.438ZM914.022 90.11C913.465 90.11 912.999 90.0037 912.625 89.791C912.251 89.5783 911.965 89.285 911.767 88.911C911.569 88.5297 911.459 88.097 911.437 87.613C911.43 87.4883 911.426 87.3307 911.426 87.14C911.426 86.942 911.43 86.7843 911.437 86.667C911.459 86.1757 911.569 85.743 911.767 85.369C911.973 84.995 912.262 84.7017 912.636 84.489C913.01 84.2763 913.472 84.17 914.022 84.17C914.572 84.17 915.034 84.2763 915.408 84.489C915.782 84.7017 916.068 84.995 916.266 85.369C916.472 85.743 916.585 86.1757 916.607 86.667C916.615 86.7843 916.618 86.942 916.618 87.14C916.618 87.3307 916.615 87.4883 916.607 87.613C916.585 88.097 916.475 88.5297 916.277 88.911C916.079 89.285 915.793 89.5783 915.419 89.791C915.045 90.0037 914.58 90.11 914.022 90.11ZM914.022 89.263C914.477 89.263 914.84 89.12 915.111 88.834C915.383 88.5407 915.529 88.1153 915.551 87.558C915.559 87.448 915.562 87.3087 915.562 87.14C915.562 86.9713 915.559 86.832 915.551 86.722C915.529 86.1647 915.383 85.743 915.111 85.457C914.84 85.1637 914.477 85.017 914.022 85.017C913.568 85.017 913.201 85.1637 912.922 85.457C912.651 85.743 912.508 86.1647 912.493 86.722C912.486 86.832 912.482 86.9713 912.482 87.14C912.482 87.3087 912.486 87.448 912.493 87.558C912.508 88.1153 912.651 88.5407 912.922 88.834C913.201 89.12 913.568 89.263 914.022 89.263ZM920.086 90.11C919.682 90.11 919.334 90.0403 919.041 89.901C918.747 89.7543 918.505 89.56 918.315 89.318C918.131 89.0687 917.992 88.7863 917.897 88.471C917.809 88.1557 917.757 87.822 917.743 87.47C917.735 87.3527 917.732 87.2427 917.732 87.14C917.732 87.0373 917.735 86.9273 917.743 86.81C917.757 86.4653 917.809 86.1353 917.897 85.82C917.992 85.5047 918.131 85.2223 918.315 84.973C918.505 84.7237 918.747 84.5293 919.041 84.39C919.334 84.2433 919.682 84.17 920.086 84.17C920.518 84.17 920.878 84.247 921.164 84.401C921.45 84.555 921.684 84.7457 921.868 84.973V82.443C921.868 82.3697 921.89 82.311 921.934 82.267C921.985 82.2157 922.047 82.19 922.121 82.19H922.649C922.722 82.19 922.781 82.2157 922.825 82.267C922.876 82.311 922.902 82.3697 922.902 82.443V89.747C922.902 89.8203 922.876 89.8827 922.825 89.934C922.781 89.978 922.722 90 922.649 90H922.154C922.073 90 922.011 89.978 921.967 89.934C921.923 89.8827 921.901 89.8203 921.901 89.747V89.285C921.717 89.5197 921.479 89.7177 921.186 89.879C920.892 90.033 920.526 90.11 920.086 90.11ZM920.317 89.219C920.683 89.219 920.977 89.1347 921.197 88.966C921.417 88.7973 921.582 88.5847 921.692 88.328C921.802 88.064 921.86 87.7963 921.868 87.525C921.875 87.4077 921.879 87.2683 921.879 87.107C921.879 86.9383 921.875 86.7953 921.868 86.678C921.86 86.4213 921.798 86.1683 921.681 85.919C921.571 85.6697 921.402 85.4643 921.175 85.303C920.955 85.1417 920.669 85.061 920.317 85.061C919.943 85.061 919.646 85.1453 919.426 85.314C919.206 85.4753 919.048 85.6917 918.953 85.963C918.857 86.227 918.802 86.513 918.788 86.821C918.78 87.0337 918.78 87.2463 918.788 87.459C918.802 87.767 918.857 88.0567 918.953 88.328C919.048 88.592 919.206 88.8083 919.426 88.977C919.646 89.1383 919.943 89.219 920.317 89.219ZM926.815 90.11C926.059 90.11 925.458 89.879 925.011 89.417C924.563 88.9477 924.318 88.3097 924.274 87.503C924.266 87.4077 924.263 87.2867 924.263 87.14C924.263 86.986 924.266 86.8613 924.274 86.766C924.303 86.2453 924.424 85.7907 924.637 85.402C924.849 85.006 925.139 84.7017 925.506 84.489C925.88 84.2763 926.316 84.17 926.815 84.17C927.372 84.17 927.838 84.2873 928.212 84.522C928.593 84.7567 928.883 85.0903 929.081 85.523C929.279 85.9557 929.378 86.4617 929.378 87.041V87.228C929.378 87.3087 929.352 87.371 929.301 87.415C929.257 87.459 929.198 87.481 929.125 87.481H925.319C925.319 87.4883 925.319 87.503 925.319 87.525C925.319 87.547 925.319 87.5653 925.319 87.58C925.333 87.8807 925.399 88.163 925.517 88.427C925.634 88.6837 925.803 88.8927 926.023 89.054C926.243 89.2153 926.507 89.296 926.815 89.296C927.079 89.296 927.299 89.2557 927.475 89.175C927.651 89.0943 927.794 89.0063 927.904 88.911C928.014 88.8083 928.087 88.7313 928.124 88.68C928.19 88.5847 928.241 88.5297 928.278 88.515C928.314 88.493 928.373 88.482 928.454 88.482H928.982C929.055 88.482 929.114 88.504 929.158 88.548C929.209 88.5847 929.231 88.6397 929.224 88.713C929.216 88.823 929.158 88.9587 929.048 89.12C928.938 89.274 928.78 89.428 928.575 89.582C928.369 89.736 928.12 89.8643 927.827 89.967C927.533 90.0623 927.196 90.11 926.815 90.11ZM925.319 86.722H928.333V86.689C928.333 86.359 928.27 86.0657 928.146 85.809C928.028 85.5523 927.856 85.3507 927.629 85.204C927.401 85.05 927.13 84.973 926.815 84.973C926.499 84.973 926.228 85.05 926.001 85.204C925.781 85.3507 925.612 85.5523 925.495 85.809C925.377 86.0657 925.319 86.359 925.319 86.689V86.722ZM933.785 90C933.705 90 933.642 89.978 933.598 89.934C933.554 89.8827 933.532 89.8203 933.532 89.747V82.564C933.532 82.4833 933.554 82.421 933.598 82.377C933.642 82.3257 933.705 82.3 933.785 82.3H936.469C937.298 82.3 937.954 82.4943 938.438 82.883C938.922 83.2717 939.164 83.8473 939.164 84.61C939.164 85.1747 939.021 85.6367 938.735 85.996C938.457 86.348 938.075 86.5937 937.591 86.733L939.285 89.659C939.307 89.703 939.318 89.7433 939.318 89.78C939.318 89.8387 939.293 89.89 939.241 89.934C939.197 89.978 939.146 90 939.087 90H938.559C938.435 90 938.343 89.967 938.284 89.901C938.226 89.835 938.174 89.769 938.13 89.703L936.535 86.909H934.61V89.747C934.61 89.8203 934.585 89.8827 934.533 89.934C934.489 89.978 934.427 90 934.346 90H933.785ZM934.61 85.974H936.425C936.975 85.974 937.386 85.8603 937.657 85.633C937.929 85.3983 938.064 85.0537 938.064 84.599C938.064 84.1517 937.929 83.8107 937.657 83.576C937.393 83.3413 936.983 83.224 936.425 83.224H934.61V85.974ZM942.81 90.11C942.054 90.11 941.453 89.879 941.006 89.417C940.558 88.9477 940.313 88.3097 940.269 87.503C940.261 87.4077 940.258 87.2867 940.258 87.14C940.258 86.986 940.261 86.8613 940.269 86.766C940.298 86.2453 940.419 85.7907 940.632 85.402C940.844 85.006 941.134 84.7017 941.501 84.489C941.875 84.2763 942.311 84.17 942.81 84.17C943.367 84.17 943.833 84.2873 944.207 84.522C944.588 84.7567 944.878 85.0903 945.076 85.523C945.274 85.9557 945.373 86.4617 945.373 87.041V87.228C945.373 87.3087 945.347 87.371 945.296 87.415C945.252 87.459 945.193 87.481 945.12 87.481H941.314C941.314 87.4883 941.314 87.503 941.314 87.525C941.314 87.547 941.314 87.5653 941.314 87.58C941.328 87.8807 941.394 88.163 941.512 88.427C941.629 88.6837 941.798 88.8927 942.018 89.054C942.238 89.2153 942.502 89.296 942.81 89.296C943.074 89.296 943.294 89.2557 943.47 89.175C943.646 89.0943 943.789 89.0063 943.899 88.911C944.009 88.8083 944.082 88.7313 944.119 88.68C944.185 88.5847 944.236 88.5297 944.273 88.515C944.309 88.493 944.368 88.482 944.449 88.482H944.977C945.05 88.482 945.109 88.504 945.153 88.548C945.204 88.5847 945.226 88.6397 945.219 88.713C945.211 88.823 945.153 88.9587 945.043 89.12C944.933 89.274 944.775 89.428 944.57 89.582C944.364 89.736 944.115 89.8643 943.822 89.967C943.528 90.0623 943.191 90.11 942.81 90.11ZM941.314 86.722H944.328V86.689C944.328 86.359 944.265 86.0657 944.141 85.809C944.023 85.5523 943.851 85.3507 943.624 85.204C943.396 85.05 943.125 84.973 942.81 84.973C942.494 84.973 942.223 85.05 941.996 85.204C941.776 85.3507 941.607 85.5523 941.49 85.809C941.372 86.0657 941.314 86.359 941.314 86.689V86.722ZM946.941 90C946.868 90 946.805 89.978 946.754 89.934C946.71 89.8827 946.688 89.8203 946.688 89.747V84.533C946.688 84.4597 946.71 84.401 946.754 84.357C946.805 84.3057 946.868 84.28 946.941 84.28H947.458C947.531 84.28 947.59 84.3057 947.634 84.357C947.685 84.401 947.711 84.4597 947.711 84.533V85.017C947.902 84.7677 948.14 84.566 948.426 84.412C948.719 84.2507 949.093 84.17 949.548 84.17C950.025 84.17 950.428 84.2763 950.758 84.489C951.095 84.6943 951.348 84.984 951.517 85.358C951.686 85.7247 951.77 86.1537 951.77 86.645V89.747C951.77 89.8203 951.748 89.8827 951.704 89.934C951.66 89.978 951.601 90 951.528 90H950.978C950.905 90 950.842 89.978 950.791 89.934C950.747 89.8827 950.725 89.8203 950.725 89.747V86.7C950.725 86.1867 950.6 85.787 950.351 85.501C950.102 85.2077 949.735 85.061 949.251 85.061C948.796 85.061 948.43 85.2077 948.151 85.501C947.88 85.787 947.744 86.1867 947.744 86.7V89.747C947.744 89.8203 947.718 89.8827 947.667 89.934C947.623 89.978 947.564 90 947.491 90H946.941ZM955.517 90C955.106 90 954.772 89.923 954.516 89.769C954.259 89.6077 954.072 89.384 953.955 89.098C953.837 88.8047 953.779 88.46 953.779 88.064V85.16H952.921C952.847 85.16 952.785 85.138 952.734 85.094C952.69 85.0427 952.668 84.9803 952.668 84.907V84.533C952.668 84.4597 952.69 84.401 952.734 84.357C952.785 84.3057 952.847 84.28 952.921 84.28H953.779V82.443C953.779 82.3697 953.801 82.311 953.845 82.267C953.896 82.2157 953.958 82.19 954.032 82.19H954.549C954.622 82.19 954.681 82.2157 954.725 82.267C954.776 82.311 954.802 82.3697 954.802 82.443V84.28H956.166C956.239 84.28 956.298 84.3057 956.342 84.357C956.393 84.401 956.419 84.4597 956.419 84.533V84.907C956.419 84.9803 956.393 85.0427 956.342 85.094C956.298 85.138 956.239 85.16 956.166 85.16H954.802V87.987C954.802 88.3317 954.86 88.603 954.978 88.801C955.095 88.999 955.304 89.098 955.605 89.098H956.276C956.349 89.098 956.408 89.1237 956.452 89.175C956.503 89.219 956.529 89.2777 956.529 89.351V89.747C956.529 89.8203 956.503 89.8827 956.452 89.934C956.408 89.978 956.349 90 956.276 90H955.517ZM957.834 90C957.76 90 957.698 89.978 957.647 89.934C957.603 89.8827 957.581 89.8203 957.581 89.747V84.533C957.581 84.4597 957.603 84.401 957.647 84.357C957.698 84.3057 957.76 84.28 957.834 84.28H958.362C958.435 84.28 958.494 84.3057 958.538 84.357C958.582 84.401 958.604 84.4597 958.604 84.533V89.747C958.604 89.8203 958.582 89.8827 958.538 89.934C958.494 89.978 958.435 90 958.362 90H957.834ZM957.746 83.213C957.672 83.213 957.61 83.191 957.559 83.147C957.515 83.0957 957.493 83.0333 957.493 82.96V82.366C957.493 82.2927 957.515 82.234 957.559 82.19C957.61 82.1387 957.672 82.113 957.746 82.113H958.439C958.512 82.113 958.571 82.1387 958.615 82.19C958.666 82.234 958.692 82.2927 958.692 82.366V82.96C958.692 83.0333 958.666 83.0957 958.615 83.147C958.571 83.191 958.512 83.213 958.439 83.213H957.746ZM960.605 90C960.532 90 960.469 89.978 960.418 89.934C960.374 89.8827 960.352 89.8203 960.352 89.747V84.533C960.352 84.4597 960.374 84.401 960.418 84.357C960.469 84.3057 960.532 84.28 960.605 84.28H961.122C961.195 84.28 961.254 84.3057 961.298 84.357C961.349 84.401 961.375 84.4597 961.375 84.533V85.017C961.566 84.7677 961.804 84.566 962.09 84.412C962.383 84.2507 962.757 84.17 963.212 84.17C963.689 84.17 964.092 84.2763 964.422 84.489C964.759 84.6943 965.012 84.984 965.181 85.358C965.35 85.7247 965.434 86.1537 965.434 86.645V89.747C965.434 89.8203 965.412 89.8827 965.368 89.934C965.324 89.978 965.265 90 965.192 90H964.642C964.569 90 964.506 89.978 964.455 89.934C964.411 89.8827 964.389 89.8203 964.389 89.747V86.7C964.389 86.1867 964.264 85.787 964.015 85.501C963.766 85.2077 963.399 85.061 962.915 85.061C962.46 85.061 962.094 85.2077 961.815 85.501C961.544 85.787 961.408 86.1867 961.408 86.7V89.747C961.408 89.8203 961.382 89.8827 961.331 89.934C961.287 89.978 961.228 90 961.155 90H960.605ZM969.366 92.42C968.867 92.42 968.457 92.354 968.134 92.222C967.819 92.09 967.569 91.9287 967.386 91.738C967.21 91.5547 967.082 91.3677 967.001 91.177C966.928 90.9937 966.887 90.847 966.88 90.737C966.873 90.6637 966.895 90.6013 966.946 90.55C967.005 90.4987 967.067 90.473 967.133 90.473H967.661C967.727 90.473 967.782 90.4877 967.826 90.517C967.87 90.5463 967.907 90.6087 967.936 90.704C967.98 90.814 968.046 90.935 968.134 91.067C968.222 91.2063 968.358 91.3237 968.541 91.419C968.724 91.5217 968.981 91.573 969.311 91.573C969.656 91.573 969.945 91.5253 970.18 91.43C970.415 91.342 970.591 91.1807 970.708 90.946C970.833 90.7187 970.895 90.4033 970.895 90V89.252C970.719 89.4793 970.488 89.67 970.202 89.824C969.916 89.9707 969.557 90.044 969.124 90.044C968.713 90.044 968.361 89.9743 968.068 89.835C967.775 89.6883 967.533 89.494 967.342 89.252C967.159 89.0027 967.019 88.7203 966.924 88.405C966.836 88.0897 966.785 87.7597 966.77 87.415C966.763 87.2097 966.763 87.008 966.77 86.81C966.785 86.4653 966.836 86.1353 966.924 85.82C967.019 85.5047 967.159 85.2223 967.342 84.973C967.533 84.7237 967.775 84.5293 968.068 84.39C968.361 84.2433 968.713 84.17 969.124 84.17C969.564 84.17 969.927 84.2543 970.213 84.423C970.506 84.5843 970.745 84.7823 970.928 85.017V84.544C970.928 84.4707 970.95 84.4083 970.994 84.357C971.045 84.3057 971.108 84.28 971.181 84.28H971.687C971.76 84.28 971.823 84.3057 971.874 84.357C971.925 84.4083 971.951 84.4707 971.951 84.544V89.879C971.951 90.3703 971.867 90.8067 971.698 91.188C971.537 91.5693 971.265 91.87 970.884 92.09C970.51 92.31 970.004 92.42 969.366 92.42ZM969.344 89.164C969.711 89.164 970.004 89.0797 970.224 88.911C970.451 88.7423 970.616 88.5297 970.719 88.273C970.829 88.0163 970.888 87.756 970.895 87.492C970.902 87.3893 970.906 87.2647 970.906 87.118C970.906 86.964 970.902 86.8357 970.895 86.733C970.888 86.469 970.829 86.2087 970.719 85.952C970.616 85.6953 970.451 85.4827 970.224 85.314C970.004 85.1453 969.711 85.061 969.344 85.061C968.977 85.061 968.684 85.1453 968.464 85.314C968.244 85.4753 968.086 85.6917 967.991 85.963C967.896 86.227 967.841 86.513 967.826 86.821C967.819 87.0117 967.819 87.206 967.826 87.404C967.841 87.712 967.896 88.0017 967.991 88.273C968.086 88.537 968.244 88.7533 968.464 88.922C968.684 89.0833 968.977 89.164 969.344 89.164Z" fill="#62666D"/>
<path opacity="0.6" d="M491.417 32.11C490.794 32.11 490.259 32.0037 489.811 31.791C489.364 31.571 489.019 31.2373 488.777 30.79C488.535 30.3353 488.4 29.767 488.37 29.085C488.363 28.7623 488.359 28.4543 488.359 28.161C488.359 27.8603 488.363 27.5487 488.37 27.226C488.4 26.5513 488.539 25.9903 488.788 25.543C489.045 25.0883 489.397 24.751 489.844 24.531C490.299 24.3037 490.823 24.19 491.417 24.19C492.019 24.19 492.543 24.3037 492.99 24.531C493.445 24.751 493.801 25.0883 494.057 25.543C494.314 25.9903 494.453 26.5513 494.475 27.226C494.49 27.5487 494.497 27.8603 494.497 28.161C494.497 28.4543 494.49 28.7623 494.475 29.085C494.453 29.767 494.318 30.3353 494.068 30.79C493.826 31.2373 493.482 31.571 493.034 31.791C492.587 32.0037 492.048 32.11 491.417 32.11ZM491.417 31.175C491.982 31.175 492.44 31.0063 492.792 30.669C493.152 30.3317 493.346 29.7853 493.375 29.03C493.39 28.7 493.397 28.4067 493.397 28.15C493.397 27.886 493.39 27.5927 493.375 27.27C493.361 26.764 493.265 26.3533 493.089 26.038C492.921 25.7227 492.693 25.4917 492.407 25.345C492.121 25.1983 491.791 25.125 491.417 25.125C491.058 25.125 490.735 25.1983 490.449 25.345C490.163 25.4917 489.932 25.7227 489.756 26.038C489.588 26.3533 489.492 26.764 489.47 27.27C489.463 27.5927 489.459 27.886 489.459 28.15C489.459 28.4067 489.463 28.7 489.47 29.03C489.5 29.7853 489.694 30.3317 490.053 30.669C490.413 31.0063 490.867 31.175 491.417 31.175ZM496.354 32C496.273 32 496.211 31.978 496.167 31.934C496.123 31.8827 496.101 31.8203 496.101 31.747V24.564C496.101 24.4833 496.123 24.421 496.167 24.377C496.211 24.3257 496.273 24.3 496.354 24.3H496.86C496.948 24.3 497.014 24.322 497.058 24.366C497.102 24.4027 497.127 24.432 497.135 24.454L500.787 30.064V24.564C500.787 24.4833 500.809 24.421 500.853 24.377C500.897 24.3257 500.959 24.3 501.04 24.3H501.568C501.648 24.3 501.711 24.3257 501.755 24.377C501.806 24.421 501.832 24.4833 501.832 24.564V31.736C501.832 31.8093 501.806 31.8717 501.755 31.923C501.711 31.9743 501.652 32 501.579 32H501.051C500.97 32 500.908 31.978 500.864 31.934C500.827 31.89 500.801 31.8607 500.787 31.846L497.146 26.291V31.747C497.146 31.8203 497.12 31.8827 497.069 31.934C497.025 31.978 496.962 32 496.882 32H496.354ZM503.991 32C503.911 32 503.848 31.978 503.804 31.934C503.76 31.8827 503.738 31.8203 503.738 31.747V24.553C503.738 24.4797 503.76 24.421 503.804 24.377C503.848 24.3257 503.911 24.3 503.991 24.3H504.574C504.648 24.3 504.706 24.3257 504.75 24.377C504.802 24.421 504.827 24.4797 504.827 24.553V31.747C504.827 31.8203 504.802 31.8827 504.75 31.934C504.706 31.978 504.648 32 504.574 32H503.991ZM509.695 32C509.615 32 509.552 31.978 509.508 31.934C509.464 31.8827 509.442 31.8203 509.442 31.747V24.564C509.442 24.4833 509.464 24.421 509.508 24.377C509.552 24.3257 509.615 24.3 509.695 24.3H512.709C513.259 24.3 513.707 24.3917 514.051 24.575C514.403 24.751 514.66 24.993 514.821 25.301C514.99 25.609 515.074 25.9537 515.074 26.335C515.074 26.6357 515.023 26.896 514.92 27.116C514.825 27.3287 514.704 27.5047 514.557 27.644C514.411 27.776 514.268 27.8787 514.128 27.952C514.414 28.0913 514.667 28.3187 514.887 28.634C515.115 28.9493 515.228 29.3307 515.228 29.778C515.228 30.1813 515.137 30.5517 514.953 30.889C514.77 31.2263 514.495 31.4977 514.128 31.703C513.769 31.901 513.322 32 512.786 32H509.695ZM510.52 31.109H512.643C513.12 31.109 513.487 30.9807 513.743 30.724C514 30.4673 514.128 30.152 514.128 29.778C514.128 29.3893 514 29.0703 513.743 28.821C513.487 28.5643 513.12 28.436 512.643 28.436H510.52V31.109ZM510.52 27.556H512.544C513.014 27.556 513.369 27.4497 513.611 27.237C513.853 27.017 513.974 26.72 513.974 26.346C513.974 25.972 513.853 25.686 513.611 25.488C513.369 25.29 513.014 25.191 512.544 25.191H510.52V27.556ZM518.99 32.11C518.433 32.11 517.967 32.0037 517.593 31.791C517.219 31.5783 516.933 31.285 516.735 30.911C516.537 30.5297 516.427 30.097 516.405 29.613C516.398 29.4883 516.394 29.3307 516.394 29.14C516.394 28.942 516.398 28.7843 516.405 28.667C516.427 28.1757 516.537 27.743 516.735 27.369C516.94 26.995 517.23 26.7017 517.604 26.489C517.978 26.2763 518.44 26.17 518.99 26.17C519.54 26.17 520.002 26.2763 520.376 26.489C520.75 26.7017 521.036 26.995 521.234 27.369C521.439 27.743 521.553 28.1757 521.575 28.667C521.582 28.7843 521.586 28.942 521.586 29.14C521.586 29.3307 521.582 29.4883 521.575 29.613C521.553 30.097 521.443 30.5297 521.245 30.911C521.047 31.285 520.761 31.5783 520.387 31.791C520.013 32.0037 519.547 32.11 518.99 32.11ZM518.99 31.263C519.445 31.263 519.808 31.12 520.079 30.834C520.35 30.5407 520.497 30.1153 520.519 29.558C520.526 29.448 520.53 29.3087 520.53 29.14C520.53 28.9713 520.526 28.832 520.519 28.722C520.497 28.1647 520.35 27.743 520.079 27.457C519.808 27.1637 519.445 27.017 518.99 27.017C518.535 27.017 518.169 27.1637 517.89 27.457C517.619 27.743 517.476 28.1647 517.461 28.722C517.454 28.832 517.45 28.9713 517.45 29.14C517.45 29.3087 517.454 29.448 517.461 29.558C517.476 30.1153 517.619 30.5407 517.89 30.834C518.169 31.12 518.535 31.263 518.99 31.263ZM525.143 32C524.732 32 524.398 31.923 524.142 31.769C523.885 31.6077 523.698 31.384 523.581 31.098C523.463 30.8047 523.405 30.46 523.405 30.064V27.16H522.547C522.473 27.16 522.411 27.138 522.36 27.094C522.316 27.0427 522.294 26.9803 522.294 26.907V26.533C522.294 26.4597 522.316 26.401 522.36 26.357C522.411 26.3057 522.473 26.28 522.547 26.28H523.405V24.443C523.405 24.3697 523.427 24.311 523.471 24.267C523.522 24.2157 523.584 24.19 523.658 24.19H524.175C524.248 24.19 524.307 24.2157 524.351 24.267C524.402 24.311 524.428 24.3697 524.428 24.443V26.28H525.792C525.865 26.28 525.924 26.3057 525.968 26.357C526.019 26.401 526.045 26.4597 526.045 26.533V26.907C526.045 26.9803 526.019 27.0427 525.968 27.094C525.924 27.138 525.865 27.16 525.792 27.16H524.428V29.987C524.428 30.3317 524.486 30.603 524.604 30.801C524.721 30.999 524.93 31.098 525.231 31.098H525.902C525.975 31.098 526.034 31.1237 526.078 31.175C526.129 31.219 526.155 31.2777 526.155 31.351V31.747C526.155 31.8203 526.129 31.8827 526.078 31.934C526.034 31.978 525.975 32 525.902 32H525.143ZM529.187 32.11C528.776 32.11 528.424 32.0587 528.131 31.956C527.837 31.8533 527.599 31.7287 527.416 31.582C527.232 31.4353 527.093 31.2887 526.998 31.142C526.91 30.9953 526.862 30.878 526.855 30.79C526.847 30.7093 526.873 30.647 526.932 30.603C526.99 30.559 527.049 30.537 527.108 30.537H527.592C527.636 30.537 527.669 30.5443 527.691 30.559C527.72 30.5663 527.757 30.5957 527.801 30.647C527.896 30.7497 528.002 30.8523 528.12 30.955C528.237 31.0577 528.38 31.142 528.549 31.208C528.725 31.274 528.941 31.307 529.198 31.307C529.572 31.307 529.88 31.2373 530.122 31.098C530.364 30.9513 530.485 30.7387 530.485 30.46C530.485 30.2767 530.433 30.13 530.331 30.02C530.235 29.91 530.059 29.811 529.803 29.723C529.553 29.635 529.209 29.5433 528.769 29.448C528.329 29.3453 527.98 29.2207 527.724 29.074C527.467 28.92 527.284 28.7403 527.174 28.535C527.064 28.3223 527.009 28.084 527.009 27.82C527.009 27.5487 527.089 27.2883 527.251 27.039C527.412 26.7823 527.647 26.5733 527.955 26.412C528.27 26.2507 528.662 26.17 529.132 26.17C529.513 26.17 529.839 26.2177 530.111 26.313C530.382 26.4083 530.606 26.5293 530.782 26.676C530.958 26.8153 531.09 26.9547 531.178 27.094C531.266 27.2333 531.313 27.3507 531.321 27.446C531.328 27.5193 531.306 27.5817 531.255 27.633C531.203 27.677 531.145 27.699 531.079 27.699H530.617C530.565 27.699 530.521 27.688 530.485 27.666C530.455 27.644 530.426 27.6183 530.397 27.589C530.323 27.4937 530.235 27.3983 530.133 27.303C530.037 27.2077 529.909 27.1307 529.748 27.072C529.594 27.006 529.388 26.973 529.132 26.973C528.765 26.973 528.49 27.05 528.307 27.204C528.123 27.358 528.032 27.5523 528.032 27.787C528.032 27.9263 528.072 28.051 528.153 28.161C528.233 28.271 528.387 28.37 528.615 28.458C528.842 28.546 529.179 28.6413 529.627 28.744C530.111 28.8393 530.492 28.9677 530.771 29.129C531.049 29.2903 531.247 29.4773 531.365 29.69C531.482 29.9027 531.541 30.1483 531.541 30.427C531.541 30.735 531.449 31.0173 531.266 31.274C531.09 31.5307 530.826 31.736 530.474 31.89C530.129 32.0367 529.7 32.11 529.187 32.11Z" fill="#62666D"/>
<path opacity="0.4" d="M284.295 133.11C283.65 133.11 283.1 132.989 282.645 132.747C282.198 132.505 281.853 132.164 281.611 131.724C281.376 131.284 281.244 130.767 281.215 130.173C281.208 129.85 281.204 129.509 281.204 129.15C281.204 128.783 281.208 128.435 281.215 128.105C281.244 127.511 281.376 126.998 281.611 126.565C281.853 126.132 282.201 125.795 282.656 125.553C283.111 125.311 283.657 125.19 284.295 125.19C284.816 125.19 285.267 125.263 285.648 125.41C286.029 125.557 286.341 125.744 286.583 125.971C286.832 126.191 287.016 126.422 287.133 126.664C287.258 126.906 287.324 127.119 287.331 127.302C287.338 127.368 287.32 127.423 287.276 127.467C287.232 127.504 287.173 127.522 287.1 127.522H286.451C286.378 127.522 286.323 127.507 286.286 127.478C286.257 127.449 286.227 127.397 286.198 127.324C286.132 127.133 286.022 126.946 285.868 126.763C285.721 126.58 285.52 126.429 285.263 126.312C285.014 126.187 284.691 126.125 284.295 126.125C283.716 126.125 283.246 126.283 282.887 126.598C282.535 126.913 282.344 127.434 282.315 128.16C282.293 128.813 282.293 129.465 282.315 130.118C282.344 130.851 282.539 131.379 282.898 131.702C283.257 132.017 283.727 132.175 284.306 132.175C284.695 132.175 285.039 132.105 285.34 131.966C285.648 131.819 285.89 131.596 286.066 131.295C286.242 130.994 286.33 130.613 286.33 130.151V129.689H284.68C284.607 129.689 284.544 129.667 284.493 129.623C284.449 129.572 284.427 129.506 284.427 129.425V129.073C284.427 128.992 284.449 128.93 284.493 128.886C284.544 128.835 284.607 128.809 284.68 128.809H287.166C287.247 128.809 287.309 128.835 287.353 128.886C287.397 128.93 287.419 128.992 287.419 129.073V130.129C287.419 130.73 287.294 131.255 287.045 131.702C286.803 132.149 286.447 132.498 285.978 132.747C285.509 132.989 284.948 133.11 284.295 133.11ZM291.188 133.11C290.631 133.11 290.165 133.004 289.791 132.791C289.417 132.578 289.131 132.285 288.933 131.911C288.735 131.53 288.625 131.097 288.603 130.613C288.596 130.488 288.592 130.331 288.592 130.14C288.592 129.942 288.596 129.784 288.603 129.667C288.625 129.176 288.735 128.743 288.933 128.369C289.139 127.995 289.428 127.702 289.802 127.489C290.176 127.276 290.638 127.17 291.188 127.17C291.738 127.17 292.2 127.276 292.574 127.489C292.948 127.702 293.234 127.995 293.432 128.369C293.638 128.743 293.751 129.176 293.773 129.667C293.781 129.784 293.784 129.942 293.784 130.14C293.784 130.331 293.781 130.488 293.773 130.613C293.751 131.097 293.641 131.53 293.443 131.911C293.245 132.285 292.959 132.578 292.585 132.791C292.211 133.004 291.746 133.11 291.188 133.11ZM291.188 132.263C291.643 132.263 292.006 132.12 292.277 131.834C292.549 131.541 292.695 131.115 292.717 130.558C292.725 130.448 292.728 130.309 292.728 130.14C292.728 129.971 292.725 129.832 292.717 129.722C292.695 129.165 292.549 128.743 292.277 128.457C292.006 128.164 291.643 128.017 291.188 128.017C290.734 128.017 290.367 128.164 290.088 128.457C289.817 128.743 289.674 129.165 289.659 129.722C289.652 129.832 289.648 129.971 289.648 130.14C289.648 130.309 289.652 130.448 289.659 130.558C289.674 131.115 289.817 131.541 290.088 131.834C290.367 132.12 290.734 132.263 291.188 132.263ZM296.949 133C296.839 133 296.751 132.974 296.685 132.923C296.626 132.872 296.578 132.806 296.542 132.725L294.507 127.621C294.492 127.584 294.485 127.548 294.485 127.511C294.485 127.445 294.507 127.39 294.551 127.346C294.595 127.302 294.65 127.28 294.716 127.28H295.244C295.324 127.28 295.387 127.302 295.431 127.346C295.475 127.39 295.5 127.43 295.508 127.467L297.191 131.801L298.863 127.467C298.877 127.43 298.903 127.39 298.94 127.346C298.984 127.302 299.046 127.28 299.127 127.28H299.666C299.724 127.28 299.776 127.302 299.82 127.346C299.871 127.39 299.897 127.445 299.897 127.511C299.897 127.548 299.889 127.584 299.875 127.621L297.829 132.725C297.799 132.806 297.752 132.872 297.686 132.923C297.627 132.974 297.539 133 297.422 133H296.949ZM303.121 133.11C302.366 133.11 301.765 132.879 301.317 132.417C300.87 131.948 300.624 131.31 300.58 130.503C300.573 130.408 300.569 130.287 300.569 130.14C300.569 129.986 300.573 129.861 300.58 129.766C300.61 129.245 300.731 128.791 300.943 128.402C301.156 128.006 301.446 127.702 301.812 127.489C302.186 127.276 302.623 127.17 303.121 127.17C303.679 127.17 304.144 127.287 304.518 127.522C304.9 127.757 305.189 128.09 305.387 128.523C305.585 128.956 305.684 129.462 305.684 130.041V130.228C305.684 130.309 305.659 130.371 305.607 130.415C305.563 130.459 305.505 130.481 305.431 130.481H301.625C301.625 130.488 301.625 130.503 301.625 130.525C301.625 130.547 301.625 130.565 301.625 130.58C301.64 130.881 301.706 131.163 301.823 131.427C301.941 131.684 302.109 131.893 302.329 132.054C302.549 132.215 302.813 132.296 303.121 132.296C303.385 132.296 303.605 132.256 303.781 132.175C303.957 132.094 304.1 132.006 304.21 131.911C304.32 131.808 304.394 131.731 304.43 131.68C304.496 131.585 304.548 131.53 304.584 131.515C304.621 131.493 304.68 131.482 304.76 131.482H305.288C305.362 131.482 305.42 131.504 305.464 131.548C305.516 131.585 305.538 131.64 305.53 131.713C305.523 131.823 305.464 131.959 305.354 132.12C305.244 132.274 305.087 132.428 304.881 132.582C304.676 132.736 304.427 132.864 304.133 132.967C303.84 133.062 303.503 133.11 303.121 133.11ZM301.625 129.722H304.639V129.689C304.639 129.359 304.577 129.066 304.452 128.809C304.335 128.552 304.163 128.351 303.935 128.204C303.708 128.05 303.437 127.973 303.121 127.973C302.806 127.973 302.535 128.05 302.307 128.204C302.087 128.351 301.919 128.552 301.801 128.809C301.684 129.066 301.625 129.359 301.625 129.689V129.722ZM307.253 133C307.179 133 307.117 132.978 307.066 132.934C307.022 132.883 307 132.82 307 132.747V127.544C307 127.471 307.022 127.408 307.066 127.357C307.117 127.306 307.179 127.28 307.253 127.28H307.759C307.832 127.28 307.894 127.306 307.946 127.357C307.997 127.408 308.023 127.471 308.023 127.544V128.028C308.169 127.779 308.371 127.592 308.628 127.467C308.884 127.342 309.192 127.28 309.552 127.28H309.992C310.065 127.28 310.124 127.306 310.168 127.357C310.212 127.401 310.234 127.46 310.234 127.533V127.984C310.234 128.057 310.212 128.116 310.168 128.16C310.124 128.204 310.065 128.226 309.992 128.226H309.332C308.936 128.226 308.624 128.343 308.397 128.578C308.169 128.805 308.056 129.117 308.056 129.513V132.747C308.056 132.82 308.03 132.883 307.979 132.934C307.927 132.978 307.865 133 307.792 133H307.253ZM311.431 133C311.358 133 311.296 132.978 311.244 132.934C311.2 132.883 311.178 132.82 311.178 132.747V127.533C311.178 127.46 311.2 127.401 311.244 127.357C311.296 127.306 311.358 127.28 311.431 127.28H311.948C312.022 127.28 312.08 127.306 312.124 127.357C312.176 127.401 312.201 127.46 312.201 127.533V128.017C312.392 127.768 312.63 127.566 312.916 127.412C313.21 127.251 313.584 127.17 314.038 127.17C314.515 127.17 314.918 127.276 315.248 127.489C315.586 127.694 315.839 127.984 316.007 128.358C316.176 128.725 316.26 129.154 316.26 129.645V132.747C316.26 132.82 316.238 132.883 316.194 132.934C316.15 132.978 316.092 133 316.018 133H315.468C315.395 133 315.333 132.978 315.281 132.934C315.237 132.883 315.215 132.82 315.215 132.747V129.7C315.215 129.187 315.091 128.787 314.841 128.501C314.592 128.208 314.225 128.061 313.741 128.061C313.287 128.061 312.92 128.208 312.641 128.501C312.37 128.787 312.234 129.187 312.234 129.7V132.747C312.234 132.82 312.209 132.883 312.157 132.934C312.113 132.978 312.055 133 311.981 133H311.431ZM319.444 133.11C319.077 133.11 318.744 133.037 318.443 132.89C318.142 132.743 317.9 132.545 317.717 132.296C317.534 132.047 317.442 131.764 317.442 131.449C317.442 130.943 317.647 130.54 318.058 130.239C318.469 129.938 319.004 129.74 319.664 129.645L321.303 129.414V129.095C321.303 128.743 321.2 128.468 320.995 128.27C320.797 128.072 320.471 127.973 320.016 127.973C319.686 127.973 319.418 128.039 319.213 128.171C319.015 128.303 318.876 128.472 318.795 128.677C318.751 128.787 318.674 128.842 318.564 128.842H318.069C317.988 128.842 317.926 128.82 317.882 128.776C317.845 128.725 317.827 128.666 317.827 128.6C317.827 128.49 317.867 128.354 317.948 128.193C318.036 128.032 318.168 127.874 318.344 127.72C318.52 127.566 318.744 127.438 319.015 127.335C319.294 127.225 319.631 127.17 320.027 127.17C320.467 127.17 320.837 127.229 321.138 127.346C321.439 127.456 321.673 127.606 321.842 127.797C322.018 127.988 322.143 128.204 322.216 128.446C322.297 128.688 322.337 128.934 322.337 129.183V132.747C322.337 132.82 322.311 132.883 322.26 132.934C322.216 132.978 322.157 133 322.084 133H321.578C321.497 133 321.435 132.978 321.391 132.934C321.347 132.883 321.325 132.82 321.325 132.747V132.274C321.23 132.406 321.101 132.538 320.94 132.67C320.779 132.795 320.577 132.901 320.335 132.989C320.093 133.07 319.796 133.11 319.444 133.11ZM319.675 132.285C319.976 132.285 320.251 132.223 320.5 132.098C320.749 131.966 320.944 131.764 321.083 131.493C321.23 131.222 321.303 130.881 321.303 130.47V130.162L320.027 130.349C319.506 130.422 319.114 130.547 318.85 130.723C318.586 130.892 318.454 131.108 318.454 131.372C318.454 131.577 318.513 131.75 318.63 131.889C318.755 132.021 318.909 132.12 319.092 132.186C319.283 132.252 319.477 132.285 319.675 132.285ZM324.171 133C324.098 133 324.036 132.978 323.984 132.934C323.94 132.883 323.918 132.82 323.918 132.747V127.533C323.918 127.46 323.94 127.401 323.984 127.357C324.036 127.306 324.098 127.28 324.171 127.28H324.688C324.762 127.28 324.82 127.306 324.864 127.357C324.916 127.401 324.941 127.46 324.941 127.533V128.017C325.132 127.768 325.37 127.566 325.656 127.412C325.95 127.251 326.324 127.17 326.778 127.17C327.255 127.17 327.658 127.276 327.988 127.489C328.326 127.694 328.579 127.984 328.747 128.358C328.916 128.725 329 129.154 329 129.645V132.747C329 132.82 328.978 132.883 328.934 132.934C328.89 132.978 328.832 133 328.758 133H328.208C328.135 133 328.073 132.978 328.021 132.934C327.977 132.883 327.955 132.82 327.955 132.747V129.7C327.955 129.187 327.831 128.787 327.581 128.501C327.332 128.208 326.965 128.061 326.481 128.061C326.027 128.061 325.66 128.208 325.381 128.501C325.11 128.787 324.974 129.187 324.974 129.7V132.747C324.974 132.82 324.949 132.883 324.897 132.934C324.853 132.978 324.795 133 324.721 133H324.171ZM332.899 133.11C332.379 133.11 331.928 133.011 331.546 132.813C331.172 132.608 330.883 132.318 330.677 131.944C330.472 131.563 330.362 131.108 330.347 130.58C330.34 130.47 330.336 130.323 330.336 130.14C330.336 129.957 330.34 129.81 330.347 129.7C330.362 129.172 330.472 128.721 330.677 128.347C330.883 127.966 331.172 127.676 331.546 127.478C331.928 127.273 332.379 127.17 332.899 127.17C333.325 127.17 333.688 127.229 333.988 127.346C334.296 127.463 334.549 127.614 334.747 127.797C334.945 127.98 335.092 128.178 335.187 128.391C335.29 128.604 335.345 128.805 335.352 128.996C335.36 129.069 335.338 129.128 335.286 129.172C335.235 129.216 335.173 129.238 335.099 129.238H334.571C334.498 129.238 334.443 129.223 334.406 129.194C334.37 129.157 334.333 129.099 334.296 129.018C334.164 128.659 333.985 128.406 333.757 128.259C333.53 128.112 333.248 128.039 332.91 128.039C332.47 128.039 332.111 128.175 331.832 128.446C331.561 128.717 331.414 129.154 331.392 129.755C331.385 130.019 331.385 130.276 331.392 130.525C331.414 131.134 331.561 131.574 331.832 131.845C332.111 132.109 332.47 132.241 332.91 132.241C333.248 132.241 333.53 132.168 333.757 132.021C333.985 131.874 334.164 131.621 334.296 131.262C334.333 131.181 334.37 131.126 334.406 131.097C334.443 131.06 334.498 131.042 334.571 131.042H335.099C335.173 131.042 335.235 131.064 335.286 131.108C335.338 131.152 335.36 131.211 335.352 131.284C335.345 131.438 335.312 131.596 335.253 131.757C335.195 131.918 335.099 132.083 334.967 132.252C334.843 132.413 334.685 132.56 334.494 132.692C334.304 132.817 334.073 132.919 333.801 133C333.537 133.073 333.237 133.11 332.899 133.11ZM338.936 133.11C338.18 133.11 337.579 132.879 337.132 132.417C336.684 131.948 336.439 131.31 336.395 130.503C336.387 130.408 336.384 130.287 336.384 130.14C336.384 129.986 336.387 129.861 336.395 129.766C336.424 129.245 336.545 128.791 336.758 128.402C336.97 128.006 337.26 127.702 337.627 127.489C338.001 127.276 338.437 127.17 338.936 127.17C339.493 127.17 339.959 127.287 340.333 127.522C340.714 127.757 341.004 128.09 341.202 128.523C341.4 128.956 341.499 129.462 341.499 130.041V130.228C341.499 130.309 341.473 130.371 341.422 130.415C341.378 130.459 341.319 130.481 341.246 130.481H337.44C337.44 130.488 337.44 130.503 337.44 130.525C337.44 130.547 337.44 130.565 337.44 130.58C337.454 130.881 337.52 131.163 337.638 131.427C337.755 131.684 337.924 131.893 338.144 132.054C338.364 132.215 338.628 132.296 338.936 132.296C339.2 132.296 339.42 132.256 339.596 132.175C339.772 132.094 339.915 132.006 340.025 131.911C340.135 131.808 340.208 131.731 340.245 131.68C340.311 131.585 340.362 131.53 340.399 131.515C340.435 131.493 340.494 131.482 340.575 131.482H341.103C341.176 131.482 341.235 131.504 341.279 131.548C341.33 131.585 341.352 131.64 341.345 131.713C341.337 131.823 341.279 131.959 341.169 132.12C341.059 132.274 340.901 132.428 340.696 132.582C340.49 132.736 340.241 132.864 339.948 132.967C339.654 133.062 339.317 133.11 338.936 133.11ZM337.44 129.722H340.454V129.689C340.454 129.359 340.391 129.066 340.267 128.809C340.149 128.552 339.977 128.351 339.75 128.204C339.522 128.05 339.251 127.973 338.936 127.973C338.62 127.973 338.349 128.05 338.122 128.204C337.902 128.351 337.733 128.552 337.616 128.809C337.498 129.066 337.44 129.359 337.44 129.689V129.722Z" fill="#62666D"/>
<path opacity="0.6" d="M1455.22 41.11C1454.59 41.11 1454.06 41.0037 1453.61 40.791C1453.16 40.571 1452.82 40.2373 1452.58 39.79C1452.34 39.3353 1452.2 38.767 1452.17 38.085C1452.16 37.7623 1452.16 37.4543 1452.16 37.161C1452.16 36.8603 1452.16 36.5487 1452.17 36.226C1452.2 35.5513 1452.34 34.9903 1452.59 34.543C1452.84 34.0883 1453.2 33.751 1453.64 33.531C1454.1 33.3037 1454.62 33.19 1455.22 33.19C1455.82 33.19 1456.34 33.3037 1456.79 33.531C1457.24 33.751 1457.6 34.0883 1457.86 34.543C1458.11 34.9903 1458.25 35.5513 1458.28 36.226C1458.29 36.5487 1458.3 36.8603 1458.3 37.161C1458.3 37.4543 1458.29 37.7623 1458.28 38.085C1458.25 38.767 1458.12 39.3353 1457.87 39.79C1457.63 40.2373 1457.28 40.571 1456.83 40.791C1456.39 41.0037 1455.85 41.11 1455.22 41.11ZM1455.22 40.175C1455.78 40.175 1456.24 40.0063 1456.59 39.669C1456.95 39.3317 1457.15 38.7853 1457.18 38.03C1457.19 37.7 1457.2 37.4067 1457.2 37.15C1457.2 36.886 1457.19 36.5927 1457.18 36.27C1457.16 35.764 1457.07 35.3533 1456.89 35.038C1456.72 34.7227 1456.49 34.4917 1456.21 34.345C1455.92 34.1983 1455.59 34.125 1455.22 34.125C1454.86 34.125 1454.54 34.1983 1454.25 34.345C1453.96 34.4917 1453.73 34.7227 1453.56 35.038C1453.39 35.3533 1453.29 35.764 1453.27 36.27C1453.26 36.5927 1453.26 36.886 1453.26 37.15C1453.26 37.4067 1453.26 37.7 1453.27 38.03C1453.3 38.7853 1453.49 39.3317 1453.85 39.669C1454.21 40.0063 1454.67 40.175 1455.22 40.175ZM1460.15 41C1460.07 41 1460.01 40.978 1459.97 40.934C1459.92 40.8827 1459.9 40.8203 1459.9 40.747V33.564C1459.9 33.4833 1459.92 33.421 1459.97 33.377C1460.01 33.3257 1460.07 33.3 1460.15 33.3H1460.66C1460.75 33.3 1460.81 33.322 1460.86 33.366C1460.9 33.4027 1460.93 33.432 1460.93 33.454L1464.59 39.064V33.564C1464.59 33.4833 1464.61 33.421 1464.65 33.377C1464.7 33.3257 1464.76 33.3 1464.84 33.3H1465.37C1465.45 33.3 1465.51 33.3257 1465.55 33.377C1465.61 33.421 1465.63 33.4833 1465.63 33.564V40.736C1465.63 40.8093 1465.61 40.8717 1465.55 40.923C1465.51 40.9743 1465.45 41 1465.38 41H1464.85C1464.77 41 1464.71 40.978 1464.66 40.934C1464.63 40.89 1464.6 40.8607 1464.59 40.846L1460.95 35.291V40.747C1460.95 40.8203 1460.92 40.8827 1460.87 40.934C1460.82 40.978 1460.76 41 1460.68 41H1460.15ZM1467.79 41C1467.71 41 1467.65 40.978 1467.6 40.934C1467.56 40.8827 1467.54 40.8203 1467.54 40.747V33.553C1467.54 33.4797 1467.56 33.421 1467.6 33.377C1467.65 33.3257 1467.71 33.3 1467.79 33.3H1468.37C1468.45 33.3 1468.51 33.3257 1468.55 33.377C1468.6 33.421 1468.63 33.4797 1468.63 33.553V40.747C1468.63 40.8203 1468.6 40.8827 1468.55 40.934C1468.51 40.978 1468.45 41 1468.37 41H1467.79ZM1473.5 41C1473.41 41 1473.35 40.978 1473.31 40.934C1473.26 40.8827 1473.24 40.8203 1473.24 40.747V33.564C1473.24 33.4833 1473.26 33.421 1473.31 33.377C1473.35 33.3257 1473.41 33.3 1473.5 33.3H1475.99C1476.75 33.3 1477.36 33.4137 1477.82 33.641C1478.28 33.8683 1478.62 34.2057 1478.83 34.653C1479.04 35.093 1479.15 35.6357 1479.16 36.281C1479.17 36.611 1479.17 36.9007 1479.17 37.15C1479.17 37.3993 1479.17 37.6853 1479.16 38.008C1479.15 38.6827 1479.03 39.2437 1478.82 39.691C1478.61 40.131 1478.28 40.461 1477.83 40.681C1477.38 40.8937 1476.79 41 1476.05 41H1473.5ZM1474.32 40.065H1475.99C1476.5 40.065 1476.9 39.9953 1477.2 39.856C1477.5 39.7167 1477.72 39.493 1477.85 39.185C1477.99 38.877 1478.06 38.47 1478.07 37.964C1478.09 37.744 1478.09 37.5533 1478.09 37.392C1478.09 37.2233 1478.09 37.0583 1478.09 36.897C1478.09 36.7283 1478.09 36.5377 1478.07 36.325C1478.06 35.6137 1477.89 35.0893 1477.57 34.752C1477.24 34.4073 1476.7 34.235 1475.94 34.235H1474.32V40.065ZM1481.08 41C1481 41 1480.94 40.978 1480.89 40.934C1480.85 40.8827 1480.83 40.8203 1480.83 40.747V33.564C1480.83 33.4833 1480.85 33.421 1480.89 33.377C1480.94 33.3257 1481 33.3 1481.08 33.3H1485.62C1485.7 33.3 1485.77 33.3257 1485.81 33.377C1485.85 33.421 1485.88 33.4833 1485.88 33.564V33.982C1485.88 34.0627 1485.85 34.125 1485.81 34.169C1485.77 34.213 1485.7 34.235 1485.62 34.235H1481.88V36.644H1485.38C1485.46 36.644 1485.52 36.6697 1485.57 36.721C1485.61 36.765 1485.63 36.8273 1485.63 36.908V37.315C1485.63 37.3883 1485.61 37.4507 1485.57 37.502C1485.52 37.546 1485.46 37.568 1485.38 37.568H1481.88V40.065H1485.71C1485.79 40.065 1485.85 40.087 1485.9 40.131C1485.94 40.175 1485.96 40.2373 1485.96 40.318V40.747C1485.96 40.8203 1485.94 40.8827 1485.9 40.934C1485.85 40.978 1485.79 41 1485.71 41H1481.08ZM1487.04 41C1486.98 41 1486.92 40.978 1486.87 40.934C1486.83 40.89 1486.8 40.8387 1486.8 40.78C1486.8 40.7507 1486.81 40.725 1486.82 40.703C1486.83 40.6737 1486.84 40.6517 1486.85 40.637L1489.37 37.084L1486.97 33.663C1486.95 33.619 1486.94 33.5713 1486.94 33.52C1486.94 33.4613 1486.96 33.41 1487 33.366C1487.05 33.322 1487.1 33.3 1487.16 33.3H1487.82C1487.89 33.3 1487.95 33.3183 1487.99 33.355C1488.04 33.3843 1488.08 33.4283 1488.11 33.487L1490.05 36.237L1491.97 33.487C1492 33.4283 1492.04 33.3843 1492.08 33.355C1492.14 33.3183 1492.19 33.3 1492.26 33.3H1492.89C1492.95 33.3 1493 33.322 1493.04 33.366C1493.09 33.41 1493.11 33.4613 1493.11 33.52C1493.11 33.5713 1493.09 33.619 1493.06 33.663L1490.7 37.095L1493.21 40.637C1493.22 40.6517 1493.23 40.6737 1493.24 40.703C1493.25 40.725 1493.25 40.7507 1493.25 40.78C1493.25 40.8387 1493.23 40.89 1493.18 40.934C1493.14 40.978 1493.09 41 1493.02 41H1492.35C1492.28 41 1492.22 40.9817 1492.17 40.945C1492.13 40.9083 1492.09 40.868 1492.05 40.824L1490.01 37.964L1487.97 40.824C1487.93 40.868 1487.89 40.9083 1487.85 40.945C1487.81 40.9817 1487.75 41 1487.67 41H1487.04Z" fill="#62666D"/>
<path opacity="0.4" d="M1656.21 153C1656.13 153 1656.07 152.978 1656.02 152.934C1655.98 152.883 1655.96 152.82 1655.96 152.747V145.564C1655.96 145.483 1655.98 145.421 1656.02 145.377C1656.07 145.326 1656.13 145.3 1656.21 145.3H1660.7C1660.78 145.3 1660.84 145.326 1660.89 145.377C1660.93 145.421 1660.95 145.483 1660.95 145.564V146.004C1660.95 146.085 1660.93 146.147 1660.89 146.191C1660.84 146.235 1660.78 146.257 1660.7 146.257H1657.02V148.82H1660.48C1660.56 148.82 1660.62 148.846 1660.67 148.897C1660.71 148.941 1660.73 149.003 1660.73 149.084V149.524C1660.73 149.597 1660.71 149.66 1660.67 149.711C1660.62 149.755 1660.56 149.777 1660.48 149.777H1657.02V152.747C1657.02 152.82 1657 152.883 1656.95 152.934C1656.9 152.978 1656.84 153 1656.76 153H1656.21ZM1663.51 153.11C1663.14 153.11 1662.81 153.037 1662.51 152.89C1662.21 152.743 1661.97 152.545 1661.78 152.296C1661.6 152.047 1661.51 151.764 1661.51 151.449C1661.51 150.943 1661.71 150.54 1662.12 150.239C1662.54 149.938 1663.07 149.74 1663.73 149.645L1665.37 149.414V149.095C1665.37 148.743 1665.27 148.468 1665.06 148.27C1664.86 148.072 1664.54 147.973 1664.08 147.973C1663.75 147.973 1663.48 148.039 1663.28 148.171C1663.08 148.303 1662.94 148.472 1662.86 148.677C1662.82 148.787 1662.74 148.842 1662.63 148.842H1662.14C1662.05 148.842 1661.99 148.82 1661.95 148.776C1661.91 148.725 1661.89 148.666 1661.89 148.6C1661.89 148.49 1661.93 148.354 1662.01 148.193C1662.1 148.032 1662.23 147.874 1662.41 147.72C1662.59 147.566 1662.81 147.438 1663.08 147.335C1663.36 147.225 1663.7 147.17 1664.09 147.17C1664.53 147.17 1664.9 147.229 1665.2 147.346C1665.51 147.456 1665.74 147.606 1665.91 147.797C1666.08 147.988 1666.21 148.204 1666.28 148.446C1666.36 148.688 1666.4 148.934 1666.4 149.183V152.747C1666.4 152.82 1666.38 152.883 1666.33 152.934C1666.28 152.978 1666.22 153 1666.15 153H1665.64C1665.56 153 1665.5 152.978 1665.46 152.934C1665.41 152.883 1665.39 152.82 1665.39 152.747V152.274C1665.3 152.406 1665.17 152.538 1665.01 152.67C1664.85 152.795 1664.64 152.901 1664.4 152.989C1664.16 153.07 1663.86 153.11 1663.51 153.11ZM1663.74 152.285C1664.04 152.285 1664.32 152.223 1664.57 152.098C1664.82 151.966 1665.01 151.764 1665.15 151.493C1665.3 151.222 1665.37 150.881 1665.37 150.47V150.162L1664.09 150.349C1663.57 150.422 1663.18 150.547 1662.92 150.723C1662.65 150.892 1662.52 151.108 1662.52 151.372C1662.52 151.577 1662.58 151.75 1662.7 151.889C1662.82 152.021 1662.98 152.12 1663.16 152.186C1663.35 152.252 1663.54 152.285 1663.74 152.285ZM1668.24 153C1668.16 153 1668.1 152.978 1668.05 152.934C1668.01 152.883 1667.98 152.82 1667.98 152.747V147.544C1667.98 147.471 1668.01 147.408 1668.05 147.357C1668.1 147.306 1668.16 147.28 1668.24 147.28H1668.74C1668.82 147.28 1668.88 147.306 1668.93 147.357C1668.98 147.408 1669.01 147.471 1669.01 147.544V148.028C1669.15 147.779 1669.36 147.592 1669.61 147.467C1669.87 147.342 1670.18 147.28 1670.54 147.28H1670.98C1671.05 147.28 1671.11 147.306 1671.15 147.357C1671.2 147.401 1671.22 147.46 1671.22 147.533V147.984C1671.22 148.057 1671.2 148.116 1671.15 148.16C1671.11 148.204 1671.05 148.226 1670.98 148.226H1670.32C1669.92 148.226 1669.61 148.343 1669.38 148.578C1669.15 148.805 1669.04 149.117 1669.04 149.513V152.747C1669.04 152.82 1669.02 152.883 1668.96 152.934C1668.91 152.978 1668.85 153 1668.78 153H1668.24ZM1672.42 153C1672.34 153 1672.28 152.978 1672.23 152.934C1672.19 152.883 1672.16 152.82 1672.16 152.747V147.533C1672.16 147.46 1672.19 147.401 1672.23 147.357C1672.28 147.306 1672.34 147.28 1672.42 147.28H1672.91C1672.98 147.28 1673.04 147.306 1673.09 147.357C1673.14 147.401 1673.16 147.46 1673.16 147.533V147.918C1673.33 147.691 1673.55 147.511 1673.8 147.379C1674.06 147.24 1674.37 147.17 1674.73 147.17C1675.56 147.163 1676.14 147.5 1676.49 148.182C1676.66 147.874 1676.9 147.628 1677.22 147.445C1677.55 147.262 1677.91 147.17 1678.32 147.17C1678.7 147.17 1679.05 147.258 1679.36 147.434C1679.67 147.61 1679.92 147.878 1680.09 148.237C1680.28 148.589 1680.37 149.033 1680.37 149.568V152.747C1680.37 152.82 1680.34 152.883 1680.29 152.934C1680.25 152.978 1680.19 153 1680.12 153H1679.6C1679.53 153 1679.46 152.978 1679.41 152.934C1679.37 152.883 1679.35 152.82 1679.35 152.747V149.667C1679.35 149.256 1679.29 148.934 1679.17 148.699C1679.05 148.464 1678.9 148.299 1678.7 148.204C1678.5 148.109 1678.28 148.061 1678.05 148.061C1677.86 148.061 1677.66 148.109 1677.47 148.204C1677.27 148.299 1677.1 148.464 1676.97 148.699C1676.85 148.934 1676.78 149.256 1676.78 149.667V152.747C1676.78 152.82 1676.76 152.883 1676.71 152.934C1676.66 152.978 1676.6 153 1676.53 153H1676.01C1675.94 153 1675.88 152.978 1675.83 152.934C1675.78 152.883 1675.76 152.82 1675.76 152.747V149.667C1675.76 149.256 1675.7 148.934 1675.57 148.699C1675.45 148.464 1675.29 148.299 1675.09 148.204C1674.89 148.109 1674.68 148.061 1674.46 148.061C1674.27 148.061 1674.08 148.109 1673.88 148.204C1673.68 148.299 1673.52 148.464 1673.38 148.699C1673.26 148.934 1673.2 149.253 1673.2 149.656V152.747C1673.2 152.82 1673.17 152.883 1673.12 152.934C1673.08 152.978 1673.02 153 1672.94 153H1672.42ZM1682.19 153C1682.12 153 1682.06 152.978 1682.01 152.934C1681.96 152.883 1681.94 152.82 1681.94 152.747V147.533C1681.94 147.46 1681.96 147.401 1682.01 147.357C1682.06 147.306 1682.12 147.28 1682.19 147.28H1682.72C1682.79 147.28 1682.85 147.306 1682.9 147.357C1682.94 147.401 1682.96 147.46 1682.96 147.533V152.747C1682.96 152.82 1682.94 152.883 1682.9 152.934C1682.85 152.978 1682.79 153 1682.72 153H1682.19ZM1682.1 146.213C1682.03 146.213 1681.97 146.191 1681.92 146.147C1681.87 146.096 1681.85 146.033 1681.85 145.96V145.366C1681.85 145.293 1681.87 145.234 1681.92 145.19C1681.97 145.139 1682.03 145.113 1682.1 145.113H1682.8C1682.87 145.113 1682.93 145.139 1682.97 145.19C1683.02 145.234 1683.05 145.293 1683.05 145.366V145.96C1683.05 146.033 1683.02 146.096 1682.97 146.147C1682.93 146.191 1682.87 146.213 1682.8 146.213H1682.1ZM1684.96 153C1684.89 153 1684.83 152.978 1684.78 152.934C1684.73 152.883 1684.71 152.82 1684.71 152.747V147.533C1684.71 147.46 1684.73 147.401 1684.78 147.357C1684.83 147.306 1684.89 147.28 1684.96 147.28H1685.48C1685.55 147.28 1685.61 147.306 1685.66 147.357C1685.71 147.401 1685.73 147.46 1685.73 147.533V148.017C1685.92 147.768 1686.16 147.566 1686.45 147.412C1686.74 147.251 1687.12 147.17 1687.57 147.17C1688.05 147.17 1688.45 147.276 1688.78 147.489C1689.12 147.694 1689.37 147.984 1689.54 148.358C1689.71 148.725 1689.79 149.154 1689.79 149.645V152.747C1689.79 152.82 1689.77 152.883 1689.73 152.934C1689.68 152.978 1689.62 153 1689.55 153H1689C1688.93 153 1688.86 152.978 1688.81 152.934C1688.77 152.883 1688.75 152.82 1688.75 152.747V149.7C1688.75 149.187 1688.62 148.787 1688.37 148.501C1688.12 148.208 1687.76 148.061 1687.27 148.061C1686.82 148.061 1686.45 148.208 1686.17 148.501C1685.9 148.787 1685.77 149.187 1685.77 149.7V152.747C1685.77 152.82 1685.74 152.883 1685.69 152.934C1685.65 152.978 1685.59 153 1685.51 153H1684.96ZM1693.72 155.42C1693.23 155.42 1692.82 155.354 1692.49 155.222C1692.18 155.09 1691.93 154.929 1691.74 154.738C1691.57 154.555 1691.44 154.368 1691.36 154.177C1691.29 153.994 1691.25 153.847 1691.24 153.737C1691.23 153.664 1691.25 153.601 1691.3 153.55C1691.36 153.499 1691.43 153.473 1691.49 153.473H1692.02C1692.09 153.473 1692.14 153.488 1692.18 153.517C1692.23 153.546 1692.27 153.609 1692.29 153.704C1692.34 153.814 1692.4 153.935 1692.49 154.067C1692.58 154.206 1692.72 154.324 1692.9 154.419C1693.08 154.522 1693.34 154.573 1693.67 154.573C1694.01 154.573 1694.3 154.525 1694.54 154.43C1694.77 154.342 1694.95 154.181 1695.07 153.946C1695.19 153.719 1695.25 153.403 1695.25 153V152.252C1695.08 152.479 1694.85 152.67 1694.56 152.824C1694.27 152.971 1693.92 153.044 1693.48 153.044C1693.07 153.044 1692.72 152.974 1692.43 152.835C1692.13 152.688 1691.89 152.494 1691.7 152.252C1691.52 152.003 1691.38 151.72 1691.28 151.405C1691.19 151.09 1691.14 150.76 1691.13 150.415C1691.12 150.21 1691.12 150.008 1691.13 149.81C1691.14 149.465 1691.19 149.135 1691.28 148.82C1691.38 148.505 1691.52 148.222 1691.7 147.973C1691.89 147.724 1692.13 147.529 1692.43 147.39C1692.72 147.243 1693.07 147.17 1693.48 147.17C1693.92 147.17 1694.29 147.254 1694.57 147.423C1694.86 147.584 1695.1 147.782 1695.29 148.017V147.544C1695.29 147.471 1695.31 147.408 1695.35 147.357C1695.4 147.306 1695.47 147.28 1695.54 147.28H1696.05C1696.12 147.28 1696.18 147.306 1696.23 147.357C1696.28 147.408 1696.31 147.471 1696.31 147.544V152.879C1696.31 153.37 1696.23 153.807 1696.06 154.188C1695.9 154.569 1695.62 154.87 1695.24 155.09C1694.87 155.31 1694.36 155.42 1693.72 155.42ZM1693.7 152.164C1694.07 152.164 1694.36 152.08 1694.58 151.911C1694.81 151.742 1694.97 151.53 1695.08 151.273C1695.19 151.016 1695.25 150.756 1695.25 150.492C1695.26 150.389 1695.26 150.265 1695.26 150.118C1695.26 149.964 1695.26 149.836 1695.25 149.733C1695.25 149.469 1695.19 149.209 1695.08 148.952C1694.97 148.695 1694.81 148.483 1694.58 148.314C1694.36 148.145 1694.07 148.061 1693.7 148.061C1693.34 148.061 1693.04 148.145 1692.82 148.314C1692.6 148.475 1692.44 148.692 1692.35 148.963C1692.25 149.227 1692.2 149.513 1692.18 149.821C1692.18 150.012 1692.18 150.206 1692.18 150.404C1692.2 150.712 1692.25 151.002 1692.35 151.273C1692.44 151.537 1692.6 151.753 1692.82 151.922C1693.04 152.083 1693.34 152.164 1693.7 152.164ZM1702.98 153.11C1702.48 153.11 1702.03 153.018 1701.65 152.835C1701.27 152.652 1700.97 152.399 1700.76 152.076C1700.55 151.746 1700.44 151.368 1700.44 150.943C1700.44 150.606 1700.51 150.312 1700.65 150.063C1700.8 149.806 1700.99 149.579 1701.22 149.381C1701.46 149.183 1701.72 149.003 1701.99 148.842C1701.65 148.475 1701.4 148.153 1701.26 147.874C1701.12 147.595 1701.05 147.306 1701.05 147.005C1701.05 146.675 1701.13 146.374 1701.3 146.103C1701.47 145.832 1701.71 145.612 1702.02 145.443C1702.32 145.274 1702.69 145.19 1703.11 145.19C1703.51 145.19 1703.86 145.271 1704.16 145.432C1704.47 145.593 1704.71 145.81 1704.88 146.081C1705.04 146.352 1705.13 146.657 1705.13 146.994C1705.13 147.317 1705.05 147.599 1704.9 147.841C1704.74 148.083 1704.54 148.299 1704.28 148.49C1704.03 148.681 1703.76 148.86 1703.46 149.029L1705.33 150.866C1705.44 150.661 1705.55 150.422 1705.66 150.151C1705.77 149.88 1705.85 149.561 1705.91 149.194C1705.93 149.047 1706.01 148.974 1706.15 148.974H1706.64C1706.7 148.974 1706.76 148.996 1706.8 149.04C1706.85 149.084 1706.87 149.139 1706.87 149.205C1706.86 149.366 1706.83 149.539 1706.79 149.722C1706.75 149.905 1706.69 150.1 1706.61 150.305C1706.54 150.51 1706.45 150.716 1706.34 150.921C1706.24 151.119 1706.12 151.317 1705.98 151.515L1707.1 152.626C1707.16 152.685 1707.2 152.74 1707.2 152.791C1707.2 152.857 1707.18 152.908 1707.14 152.945C1707.11 152.982 1707.05 153 1706.98 153H1706.36C1706.29 153 1706.23 152.989 1706.17 152.967C1706.13 152.945 1706.09 152.919 1706.06 152.89L1705.34 152.175C1705.05 152.454 1704.71 152.681 1704.33 152.857C1703.94 153.026 1703.49 153.11 1702.98 153.11ZM1702.98 152.23C1703.28 152.23 1703.57 152.171 1703.86 152.054C1704.16 151.929 1704.43 151.746 1704.68 151.504L1702.62 149.491C1702.31 149.667 1702.03 149.869 1701.8 150.096C1701.57 150.316 1701.46 150.591 1701.46 150.921C1701.46 151.2 1701.52 151.438 1701.66 151.636C1701.81 151.827 1702 151.973 1702.24 152.076C1702.47 152.179 1702.72 152.23 1702.98 152.23ZM1702.85 148.391C1703.09 148.259 1703.3 148.127 1703.5 147.995C1703.71 147.863 1703.87 147.716 1703.99 147.555C1704.11 147.394 1704.17 147.21 1704.17 147.005C1704.17 146.712 1704.07 146.477 1703.86 146.301C1703.66 146.125 1703.41 146.037 1703.11 146.037C1702.82 146.037 1702.57 146.125 1702.35 146.301C1702.13 146.47 1702.03 146.708 1702.03 147.016C1702.03 147.141 1702.05 147.269 1702.09 147.401C1702.14 147.526 1702.23 147.665 1702.35 147.819C1702.46 147.973 1702.63 148.164 1702.85 148.391ZM1711.37 153C1711.3 153 1711.24 152.978 1711.18 152.934C1711.14 152.883 1711.12 152.82 1711.12 152.747V145.564C1711.12 145.483 1711.14 145.421 1711.18 145.377C1711.24 145.326 1711.3 145.3 1711.37 145.3H1711.92C1712.01 145.3 1712.08 145.322 1712.12 145.366C1712.16 145.41 1712.19 145.447 1712.2 145.476L1714.53 149.92L1716.87 145.476C1716.89 145.447 1716.91 145.41 1716.95 145.366C1716.99 145.322 1717.06 145.3 1717.15 145.3H1717.69C1717.77 145.3 1717.83 145.326 1717.87 145.377C1717.92 145.421 1717.95 145.483 1717.95 145.564V152.747C1717.95 152.82 1717.92 152.883 1717.87 152.934C1717.83 152.978 1717.77 153 1717.69 153H1717.15C1717.07 153 1717.01 152.978 1716.96 152.934C1716.92 152.883 1716.89 152.82 1716.89 152.747V147.335L1715.06 150.921C1715.03 150.994 1714.98 151.053 1714.92 151.097C1714.87 151.134 1714.79 151.152 1714.7 151.152H1714.36C1714.27 151.152 1714.19 151.134 1714.13 151.097C1714.08 151.053 1714.04 150.994 1714 150.921L1712.16 147.335V152.747C1712.16 152.82 1712.14 152.883 1712.09 152.934C1712.04 152.978 1711.98 153 1711.91 153H1711.37ZM1719.96 153C1719.89 153 1719.83 152.978 1719.77 152.934C1719.73 152.883 1719.71 152.82 1719.71 152.747V147.533C1719.71 147.46 1719.73 147.401 1719.77 147.357C1719.83 147.306 1719.89 147.28 1719.96 147.28H1720.49C1720.56 147.28 1720.62 147.306 1720.67 147.357C1720.71 147.401 1720.73 147.46 1720.73 147.533V152.747C1720.73 152.82 1720.71 152.883 1720.67 152.934C1720.62 152.978 1720.56 153 1720.49 153H1719.96ZM1719.87 146.213C1719.8 146.213 1719.74 146.191 1719.69 146.147C1719.64 146.096 1719.62 146.033 1719.62 145.96V145.366C1719.62 145.293 1719.64 145.234 1719.69 145.19C1719.74 145.139 1719.8 145.113 1719.87 145.113H1720.57C1720.64 145.113 1720.7 145.139 1720.74 145.19C1720.79 145.234 1720.82 145.293 1720.82 145.366V145.96C1720.82 146.033 1720.79 146.096 1720.74 146.147C1720.7 146.191 1720.64 146.213 1720.57 146.213H1719.87ZM1722.73 153C1722.66 153 1722.6 152.978 1722.55 152.934C1722.5 152.883 1722.48 152.82 1722.48 152.747V147.533C1722.48 147.46 1722.5 147.401 1722.55 147.357C1722.6 147.306 1722.66 147.28 1722.73 147.28H1723.25C1723.32 147.28 1723.38 147.306 1723.43 147.357C1723.48 147.401 1723.5 147.46 1723.5 147.533V148.017C1723.69 147.768 1723.93 147.566 1724.22 147.412C1724.51 147.251 1724.89 147.17 1725.34 147.17C1725.82 147.17 1726.22 147.276 1726.55 147.489C1726.89 147.694 1727.14 147.984 1727.31 148.358C1727.48 148.725 1727.56 149.154 1727.56 149.645V152.747C1727.56 152.82 1727.54 152.883 1727.5 152.934C1727.45 152.978 1727.39 153 1727.32 153H1726.77C1726.7 153 1726.63 152.978 1726.58 152.934C1726.54 152.883 1726.52 152.82 1726.52 152.747V149.7C1726.52 149.187 1726.39 148.787 1726.14 148.501C1725.89 148.208 1725.53 148.061 1725.04 148.061C1724.59 148.061 1724.22 148.208 1723.94 148.501C1723.67 148.787 1723.54 149.187 1723.54 149.7V152.747C1723.54 152.82 1723.51 152.883 1723.46 152.934C1723.42 152.978 1723.36 153 1723.28 153H1722.73ZM1729.4 153C1729.33 153 1729.27 152.978 1729.22 152.934C1729.17 152.883 1729.15 152.82 1729.15 152.747V147.533C1729.15 147.46 1729.17 147.401 1729.22 147.357C1729.27 147.306 1729.33 147.28 1729.4 147.28H1729.93C1730.01 147.28 1730.06 147.306 1730.11 147.357C1730.15 147.401 1730.17 147.46 1730.17 147.533V152.747C1730.17 152.82 1730.15 152.883 1730.11 152.934C1730.06 152.978 1730.01 153 1729.93 153H1729.4ZM1729.32 146.213C1729.24 146.213 1729.18 146.191 1729.13 146.147C1729.08 146.096 1729.06 146.033 1729.06 145.96V145.366C1729.06 145.293 1729.08 145.234 1729.13 145.19C1729.18 145.139 1729.24 145.113 1729.32 145.113H1730.01C1730.08 145.113 1730.14 145.139 1730.18 145.19C1730.24 145.234 1730.26 145.293 1730.26 145.366V145.96C1730.26 146.033 1730.24 146.096 1730.18 146.147C1730.14 146.191 1730.08 146.213 1730.01 146.213H1729.32ZM1732.18 153C1732.1 153 1732.04 152.978 1731.99 152.934C1731.94 152.883 1731.92 152.82 1731.92 152.747V147.533C1731.92 147.46 1731.94 147.401 1731.99 147.357C1732.04 147.306 1732.1 147.28 1732.18 147.28H1732.69C1732.77 147.28 1732.82 147.306 1732.87 147.357C1732.92 147.401 1732.95 147.46 1732.95 147.533V148.017C1733.14 147.768 1733.37 147.566 1733.66 147.412C1733.95 147.251 1734.33 147.17 1734.78 147.17C1735.26 147.17 1735.66 147.276 1735.99 147.489C1736.33 147.694 1736.58 147.984 1736.75 148.358C1736.92 148.725 1737 149.154 1737 149.645V152.747C1737 152.82 1736.98 152.883 1736.94 152.934C1736.89 152.978 1736.84 153 1736.76 153H1736.21C1736.14 153 1736.08 152.978 1736.03 152.934C1735.98 152.883 1735.96 152.82 1735.96 152.747V149.7C1735.96 149.187 1735.83 148.787 1735.59 148.501C1735.34 148.208 1734.97 148.061 1734.49 148.061C1734.03 148.061 1733.66 148.208 1733.39 148.501C1733.11 148.787 1732.98 149.187 1732.98 149.7V152.747C1732.98 152.82 1732.95 152.883 1732.9 152.934C1732.86 152.978 1732.8 153 1732.73 153H1732.18ZM1740.94 155.42C1740.44 155.42 1740.03 155.354 1739.7 155.222C1739.39 155.09 1739.14 154.929 1738.96 154.738C1738.78 154.555 1738.65 154.368 1738.57 154.177C1738.5 153.994 1738.46 153.847 1738.45 153.737C1738.44 153.664 1738.46 153.601 1738.52 153.55C1738.57 153.499 1738.64 153.473 1738.7 153.473H1739.23C1739.3 153.473 1739.35 153.488 1739.4 153.517C1739.44 153.546 1739.48 153.609 1739.51 153.704C1739.55 153.814 1739.62 153.935 1739.7 154.067C1739.79 154.206 1739.93 154.324 1740.11 154.419C1740.29 154.522 1740.55 154.573 1740.88 154.573C1741.23 154.573 1741.52 154.525 1741.75 154.43C1741.98 154.342 1742.16 154.181 1742.28 153.946C1742.4 153.719 1742.47 153.403 1742.47 153V152.252C1742.29 152.479 1742.06 152.67 1741.77 152.824C1741.49 152.971 1741.13 153.044 1740.69 153.044C1740.28 153.044 1739.93 152.974 1739.64 152.835C1739.34 152.688 1739.1 152.494 1738.91 152.252C1738.73 152.003 1738.59 151.72 1738.49 151.405C1738.41 151.09 1738.35 150.76 1738.34 150.415C1738.33 150.21 1738.33 150.008 1738.34 149.81C1738.35 149.465 1738.41 149.135 1738.49 148.82C1738.59 148.505 1738.73 148.222 1738.91 147.973C1739.1 147.724 1739.34 147.529 1739.64 147.39C1739.93 147.243 1740.28 147.17 1740.69 147.17C1741.13 147.17 1741.5 147.254 1741.78 147.423C1742.08 147.584 1742.31 147.782 1742.5 148.017V147.544C1742.5 147.471 1742.52 147.408 1742.56 147.357C1742.62 147.306 1742.68 147.28 1742.75 147.28H1743.26C1743.33 147.28 1743.39 147.306 1743.44 147.357C1743.5 147.408 1743.52 147.471 1743.52 147.544V152.879C1743.52 153.37 1743.44 153.807 1743.27 154.188C1743.11 154.569 1742.84 154.87 1742.45 155.09C1742.08 155.31 1741.57 155.42 1740.94 155.42ZM1740.91 152.164C1741.28 152.164 1741.57 152.08 1741.79 151.911C1742.02 151.742 1742.19 151.53 1742.29 151.273C1742.4 151.016 1742.46 150.756 1742.47 150.492C1742.47 150.389 1742.48 150.265 1742.48 150.118C1742.48 149.964 1742.47 149.836 1742.47 149.733C1742.46 149.469 1742.4 149.209 1742.29 148.952C1742.19 148.695 1742.02 148.483 1741.79 148.314C1741.57 148.145 1741.28 148.061 1740.91 148.061C1740.55 148.061 1740.25 148.145 1740.03 148.314C1739.81 148.475 1739.66 148.692 1739.56 148.963C1739.47 149.227 1739.41 149.513 1739.4 149.821C1739.39 150.012 1739.39 150.206 1739.4 150.404C1739.41 150.712 1739.47 151.002 1739.56 151.273C1739.66 151.537 1739.81 151.753 1740.03 151.922C1740.25 152.083 1740.55 152.164 1740.91 152.164Z" fill="#62666D"/>
<g opacity="0.25">
<path d="M1458.4 50H1822.4C1827.04 50 1830.8 53.7608 1830.8 58.4V83.6C1830.8 88.2392 1827.04 92 1822.4 92H1458.4C1453.76 92 1450 88.2392 1450 83.6V58.4C1450 53.7608 1453.76 50 1458.4 50Z" fill="url(#paint0_linear_33_94)" fill-opacity="0.05"/>
<path d="M1458.4 51.05H1822.4C1826.46 51.05 1829.75 54.3407 1829.75 58.4V83.6C1829.75 87.6593 1826.46 90.95 1822.4 90.95H1458.4C1454.34 90.95 1451.05 87.6593 1451.05 83.6V58.4C1451.05 54.3407 1454.34 51.05 1458.4 51.05Z" stroke="url(#paint1_linear_33_94)" stroke-opacity="0.09" stroke-width="1.5"/>
</g>
<g opacity="0.25">
<path d="M524.618 41H161.382C156.753 41 153 44.7608 153 49.4V74.6C153 79.2392 156.753 83 161.382 83H524.618C529.247 83 533 79.2392 533 74.6V49.4C533 44.7608 529.247 41 524.618 41Z" fill="url(#paint2_linear_33_94)" fill-opacity="0.05"/>
<path d="M524.618 42.05H161.382C157.332 42.05 154.048 45.3408 154.048 49.4V74.6001C154.048 78.6593 157.332 81.9501 161.382 81.9501H524.618C528.668 81.9501 531.952 78.6593 531.952 74.6001V49.4C531.952 45.3408 528.668 42.05 524.618 42.05Z" stroke="url(#paint3_linear_33_94)" stroke-opacity="0.09" stroke-width="1.5"/>
</g>
<g opacity="0.25">
<path d="M334.4 142H-29.6C-34.2392 142 -38 145.761 -38 150.4V175.6C-38 180.239 -34.2392 184 -29.6 184H334.4C339.039 184 342.8 180.239 342.8 175.6V150.4C342.8 145.761 339.039 142 334.4 142Z" fill="url(#paint4_linear_33_94)" fill-opacity="0.05"/>
<path d="M334.4 143.05H-29.6002C-33.6595 143.05 -36.9502 146.341 -36.9502 150.4V175.6C-36.9502 179.659 -33.6595 182.95 -29.6002 182.95H334.4C338.459 182.95 341.75 179.659 341.75 175.6V150.4C341.75 146.341 338.459 143.05 334.4 143.05Z" stroke="url(#paint5_linear_33_94)" stroke-opacity="0.09" stroke-width="1.5"/>
</g>
<g opacity="0.25">
<path d="M1662.4 163H2026.4C2031.04 163 2034.8 166.761 2034.8 171.4V196.6C2034.8 201.239 2031.04 205 2026.4 205H1662.4C1657.76 205 1654 201.239 1654 196.6V171.4C1654 166.761 1657.76 163 1662.4 163Z" fill="url(#paint6_linear_33_94)" fill-opacity="0.05"/>
<path d="M1662.4 164.05H2026.4C2030.46 164.05 2033.75 167.341 2033.75 171.4V196.6C2033.75 200.659 2030.46 203.95 2026.4 203.95H1662.4C1658.34 203.95 1655.05 200.659 1655.05 196.6V171.4C1655.05 167.341 1658.34 164.05 1662.4 164.05Z" stroke="url(#paint7_linear_33_94)" stroke-opacity="0.09" stroke-width="1.5"/>
</g>
<path d="M533.5 62.0207L717.071 62.0207C734.183 61.6481 751.022 66.3059 765.455 75.4042L800.659 97.5961C814.545 106.35 830.67 111 847.138 111H902" stroke="#25292A" stroke-width="2"/>
<path d="M532 62.0213H716.287C733.703 61.6378 750.841 66.4319 765.53 75.7963L801.359 98.6373C815.492 107.647 831.904 112.433 848.664 112.433H904.5" stroke="url(#paint8_linear_33_94)" stroke-opacity="0.8" stroke-width="2"/>
<path d="M533.5 62H644.077C664.081 61.9999 683.475 55.1142 699 42.5L705.15 37.504C716.697 28.1219 731.122 23.0003 746 23H794" stroke="#9FF2D5" stroke-width="2"/>
<path d="M533 62H644.077C664.081 61.9999 683.475 55.1142 699 42.5L705.15 37.504C716.697 28.1219 731.122 23.0003 746 23H794.5" stroke="url(#paint9_linear_33_94)" stroke-width="2"/>
<g opacity="0.15">
<path d="M1388.5 73H1277.92C1257.92 73.0001 1238.53 79.8858 1223 92.5L1216.85 97.496C1205.3 106.878 1190.88 112 1176 112" stroke="#46484B" stroke-width="2"/>
<path d="M1389 73H1277.92C1257.92 73.0001 1238.53 79.8858 1223 92.5L1216.85 97.496C1205.3 106.878 1190.88 112 1176 112" stroke="url(#paint10_linear_33_94)" stroke-opacity="0.8" stroke-width="2"/>
</g>
<path d="M1451 70.5L1364.21 72.412C1346.8 72.7955 1329.66 68.0015 1314.97 58.637L1279.14 35.796C1265.01 26.7864 1248.6 22.0001 1231.84 22H1127" stroke="#46484B" stroke-width="2"/>
<path d="M1451 70.5L1364.21 72.412C1346.8 72.7955 1329.66 68.0015 1314.97 58.637L1279.14 35.796C1265.01 26.7864 1248.6 22.0001 1231.84 22H1127" stroke="url(#paint11_linear_33_94)" stroke-opacity="0.8" stroke-width="2"/>
</g>
<defs>
<linearGradient id="paint0_linear_33_94" x1="1808.5" y1="71" x2="1450" y2="71" gradientUnits="userSpaceOnUse">
<stop stop-color="#999999" stop-opacity="0"/>
<stop offset="1" stop-color="white"/>
</linearGradient>
<linearGradient id="paint1_linear_33_94" x1="1846" y1="71" x2="1451.05" y2="71" gradientUnits="userSpaceOnUse">
<stop stop-color="#999999" stop-opacity="0"/>
<stop offset="1" stop-color="white"/>
</linearGradient>
<linearGradient id="paint2_linear_33_94" x1="246.803" y1="62" x2="533" y2="62" gradientUnits="userSpaceOnUse">
<stop stop-color="#999999" stop-opacity="0"/>
<stop offset="1" stop-color="white"/>
</linearGradient>
<linearGradient id="paint3_linear_33_94" x1="225.348" y1="62.0001" x2="531.952" y2="62.0001" gradientUnits="userSpaceOnUse">
<stop stop-color="#999999" stop-opacity="0"/>
<stop offset="1" stop-color="white"/>
</linearGradient>
<linearGradient id="paint4_linear_33_94" x1="56" y1="163" x2="342.8" y2="163" gradientUnits="userSpaceOnUse">
<stop stop-color="#999999" stop-opacity="0"/>
<stop offset="1" stop-color="white"/>
</linearGradient>
<linearGradient id="paint5_linear_33_94" x1="34.5" y1="163" x2="341.75" y2="163" gradientUnits="userSpaceOnUse">
<stop stop-color="#999999" stop-opacity="0"/>
<stop offset="1" stop-color="white"/>
</linearGradient>
<linearGradient id="paint6_linear_33_94" x1="1940.8" y1="184" x2="1654" y2="184" gradientUnits="userSpaceOnUse">
<stop stop-color="#999999" stop-opacity="0"/>
<stop offset="1" stop-color="white"/>
</linearGradient>
<linearGradient id="paint7_linear_33_94" x1="1962.3" y1="184" x2="1655.05" y2="184" gradientUnits="userSpaceOnUse">
<stop stop-color="#999999" stop-opacity="0"/>
<stop offset="1" stop-color="white"/>
</linearGradient>
<linearGradient id="paint8_linear_33_94" x1="647.5" y1="67.9333" x2="687.5" y2="67.9333" gradientUnits="userSpaceOnUse">
<stop stop-color="#0B0C0D"/>
<stop offset="1" stop-color="#0B0C0D" stop-opacity="0"/>
</linearGradient>
<linearGradient id="paint9_linear_33_94" x1="531.5" y1="62" x2="645" y2="62" gradientUnits="userSpaceOnUse">
<stop stop-color="#19191E"/>
<stop offset="1" stop-color="#0B0C0D" stop-opacity="0"/>
</linearGradient>
<linearGradient id="paint10_linear_33_94" x1="1375.06" y1="107.412" x2="1344.08" y2="107.412" gradientUnits="userSpaceOnUse">
<stop stop-color="#0B0C0D"/>
<stop offset="1" stop-color="#0B0C0D" stop-opacity="0"/>
</linearGradient>
<linearGradient id="paint11_linear_33_94" x1="1433" y1="66.5" x2="1393" y2="66.5" gradientUnits="userSpaceOnUse">
<stop stop-color="#0B0C0D"/>
<stop offset="1" stop-color="#0B0C0D" stop-opacity="0"/>
</linearGradient>
<clipPath id="clip0_33_94">
<rect width="1920" height="205" fill="white"/>
</clipPath>
<clipPath id="clip1_33_94">
<rect width="16" height="16" fill="white" transform="translate(1150 104)"/>
</clipPath>
</defs>
</svg>
